<?xml version="1.0" standalone="no"?>
<!DOCTYPE svg PUBLIC "-//W3C//DTD SVG 20010904//EN"
 "http://www.w3.org/TR/2001/REC-SVG-20010904/DTD/svg10.dtd">
<svg version="1.0" xmlns="http://www.w3.org/2000/svg"
 width="340.000000pt" height="200.000000pt" viewBox="0 0 340.000000 200.000000"
 preserveAspectRatio="xMidYMid meet">

<g transform="translate(0.000000,200.000000) scale(0.100000,-0.100000)"
fill="#000000" stroke="none">
<path d="M167 1893 c-21 -20 8 -54 153 -189 89 -81 170 -155 180 -164 11 -10
20 -20 20 -24 0 -3 -110 -6 -245 -6 -242 0 -245 0 -245 -21 0 -19 47 -69 134
-145 17 -15 56 -50 86 -78 30 -28 102 -94 159 -146 57 -52 109 -100 115 -105
6 -6 61 -56 121 -110 61 -55 112 -102 115 -105 3 -4 33 -31 67 -62 33 -31 59
-59 55 -62 -3 -3 -185 -6 -404 -6 l-398 0 0 -24 c0 -15 11 -33 27 -46 16 -12
48 -40 73 -63 25 -23 104 -94 175 -157 72 -63 132 -117 135 -120 3 -3 39 -34
80 -70 41 -36 81 -71 88 -77 11 -11 286 -13 1355 -11 l1342 3 3 21 c2 15 -20
41 -85 100 -48 43 -90 81 -93 84 -3 4 -101 90 -218 193 l-212 187 -270 0 -270
0 0 -29 c0 -22 13 -39 62 -82 34 -30 83 -73 108 -96 l45 -42 -86 -1 -87 0
-130 115 -131 115 -221 0 -220 0 -88 79 c-48 43 -121 110 -162 149 l-75 71
388 1 387 0 0 28 c0 29 -17 48 -175 191 -64 58 -148 136 -257 239 l-66 62 514
0 514 0 205 133 c112 72 221 142 242 154 21 12 54 35 73 52 29 25 33 32 24 48
-11 17 -69 18 -1456 21 -794 1 -1448 -1 -1451 -5z m463 -476 c25 -23 92 -85
150 -137 58 -52 134 -122 170 -156 36 -33 94 -87 130 -119 36 -33 67 -61 70
-64 5 -6 175 -160 243 -221 20 -18 37 -37 37 -42 0 -4 -95 -8 -211 -8 l-211 0
-37 31 c-20 18 -63 57 -96 88 -52 48 -244 224 -279 256 -139 125 -298 271
-391 358 l-60 56 220 1 220 0 45 -43z m2238 -924 c92 -80 169 -150 172 -153 3
-4 48 -44 100 -90 52 -45 99 -86 105 -91 5 -5 -73 -9 -186 -9 l-194 0 -105 91
c-58 51 -107 95 -110 98 -3 4 -21 19 -40 35 -19 15 -57 49 -85 75 -27 26 -83
75 -122 110 -40 35 -73 68 -73 72 0 5 83 9 185 9 l185 0 168 -147z"/>
</g>
</svg>
